<svg width="50" height="50" viewBox="0 0 50 50" fill="none" xmlns="http://www.w3.org/2000/svg">
<g clip-path="url(#clip0_1278_248)">
<path d="M7.32459 42.6775C4.93683 40.3713 3.03228 37.6127 1.72205 34.5626C0.411828 31.5125 -0.277828 28.232 -0.306673 24.9125C-0.335519 21.5931 0.297024 18.3011 1.55405 15.2287C2.81107 12.1563 4.6674 9.36496 7.01471 7.01764C9.36203 4.67033 12.1533 2.814 15.2257 1.55698C18.2981 0.299953 21.5901 -0.332589 24.9096 -0.303744C28.2291 -0.274898 31.5096 0.414758 34.5597 1.72498C37.6098 3.03521 40.3684 4.93976 42.6746 7.32752C47.2285 12.0426 49.7484 18.3576 49.6914 24.9125C49.6345 31.4675 47.0053 37.7378 42.3701 42.373C37.7348 47.0082 31.4645 49.6374 24.9096 49.6944C18.3547 49.7513 12.0396 47.2315 7.32459 42.6775ZM39.1496 39.1525C42.9024 35.3997 45.0107 30.3098 45.0107 25.0025C45.0107 19.6952 42.9024 14.6053 39.1496 10.8525C35.3968 7.0997 30.3069 4.9914 24.9996 4.9914C19.6923 4.9914 14.6024 7.0997 10.8496 10.8525C7.09677 14.6053 4.98847 19.6952 4.98847 25.0025C4.98847 30.3098 7.09677 35.3997 10.8496 39.1525C14.6024 42.9053 19.6923 45.0136 24.9996 45.0136C30.3069 45.0136 35.3968 42.9053 39.1496 39.1525ZM17.4996 15.0025H22.4996V35.0025H17.4996V15.0025ZM27.4996 15.0025H32.4996V35.0025H27.4996V15.0025Z" fill="white"/>
</g>
<defs>
<clipPath id="clip0_1278_248">
<rect width="50" height="50" fill="white"/>
</clipPath>
</defs>
</svg>
