<svg width="83" height="128" viewBox="0 0 83 128" fill="none" xmlns="http://www.w3.org/2000/svg">
<path d="M44.4996 92.8V2.5H53.5344C54.3281 6.74983 57.03 10.5822 60.0339 14.0701C61.7168 16.0241 63.6051 17.9894 65.4827 19.9435C65.6445 20.1119 65.8063 20.2802 65.9678 20.4485C68.0245 22.5907 70.0647 24.736 71.9359 26.9656C75.6957 31.4453 78.5684 36.0332 79.4063 41.1071C80.1096 45.3663 79.4216 50.247 76.1182 56.0197C76.4832 52.1075 76.2159 47.1611 74.7558 42.4391C72.4496 34.9808 67.0187 27.7146 56.1611 26.1279L53.3002 25.7098L53.2996 28.6011L53.2858 102.4V102.4C53.2858 111.318 42.761 125.5 21.2996 125.5C15.9507 125.5 11.3317 124.191 8.12281 121.881C4.99464 119.629 3.09961 116.367 3.09961 112C3.09961 106.136 5.94082 101.401 10.5131 98.0512C15.1317 94.6678 21.4926 92.74 28.1996 92.74C32.5453 92.74 35.7705 93.3467 37.8669 93.9288C38.9161 94.2202 39.6853 94.5062 40.1731 94.7088C40.417 94.8101 40.5906 94.8906 40.6937 94.9405C40.7452 94.9654 40.7792 94.9827 40.7954 94.9911C40.7985 94.9927 40.801 94.994 40.8028 94.9949C40.8047 94.9959 40.8059 94.9966 40.8064 94.9968L40.8066 94.997L44.4996 97.036V92.8ZM72.8557 60.5277C72.8558 60.527 72.8645 60.5216 72.8813 60.5135C72.8639 60.5243 72.8555 60.5283 72.8557 60.5277ZM73.9141 60.5182C74.3429 60.6684 74.6008 60.9185 74.7538 61.143L72.9439 60.4874C73.0975 60.4311 73.4434 60.3533 73.9141 60.5182Z" fill="#66CCFF" stroke="#D443AB" stroke-width="5"/>
</svg>
