<svg width="83" height="128" viewBox="0 0 83 128" fill="none" xmlns="http://www.w3.org/2000/svg">
<path d="M43.4996 92.8V1.5H54.3914C54.9129 5.78056 57.5936 9.70417 60.7916 13.4175C62.4558 15.3498 64.3254 17.2957 66.2073 19.2543C66.3679 19.4214 66.5285 19.5886 66.6892 19.7559C68.745 21.8972 70.8066 24.0645 72.7019 26.3227C76.5028 30.8515 79.5115 35.6066 80.3929 40.9442C81.2638 46.2184 80.0925 52.2907 75.0669 59.5483C74.75 60.0053 74.466 60.3624 74.2182 60.6381C75.4309 57.0139 75.9353 49.6387 73.8004 42.7345C71.5753 35.5382 66.3937 28.6339 56.0165 27.1174L54.2999 26.8665L54.2996 28.6013L54.2858 102.4V102.4C54.2858 111.993 43.1823 126.5 21.2996 126.5C15.8036 126.5 10.9622 125.157 7.53854 122.692C4.1633 120.262 2.09961 116.705 2.09961 112C2.09961 105.769 5.13396 100.752 9.92215 97.2445C14.7381 93.7166 21.3147 91.74 28.1996 91.74C32.6397 91.74 35.9548 92.36 38.1344 92.9653C39.2249 93.2681 40.0328 93.5677 40.5566 93.7853C40.8185 93.8941 41.0095 93.9823 41.1292 94.0403C41.1891 94.0692 41.2311 94.0906 41.2554 94.1032L41.2746 94.1132L41.2756 94.1137L41.2765 94.1142L41.2781 94.1151L41.2784 94.1152L41.2798 94.116L43.4996 95.3416V92.8ZM73.2694 61.4321C73.2695 61.4316 73.2751 61.4295 73.2858 61.4271C73.2747 61.4314 73.2693 61.4326 73.2694 61.4321Z" fill="#B843B1" stroke="#FBF5F5" stroke-width="3"/>
</svg>
