<svg width="11" height="21" viewBox="0 0 11 21" fill="none" xmlns="http://www.w3.org/2000/svg">
<path d="M0.272657 19.3128C0.182439 19.4082 0.11191 19.5205 0.065094 19.6433C0.0182785 19.766 -0.00390603 19.8967 -0.000191689 20.028C0.00352265 20.1593 0.0330627 20.2886 0.0867414 20.4085C0.14042 20.5284 0.217186 20.6365 0.312657 20.7268C0.408128 20.817 0.520435 20.8875 0.643164 20.9343C0.765892 20.9811 0.89664 21.0033 1.02794 20.9996C1.15924 20.9959 1.28853 20.9663 1.40841 20.9127C1.5283 20.859 1.63644 20.7822 1.72666 20.6868L10.2267 11.6868C10.4022 11.5011 10.5 11.2553 10.5 10.9998C10.5 10.7442 10.4022 10.4984 10.2267 10.3128L1.72666 1.31175C1.63704 1.21419 1.52892 1.13541 1.40859 1.07998C1.28827 1.02456 1.15813 0.993595 1.02573 0.988892C0.893338 0.984188 0.761328 1.00584 0.637371 1.05258C0.513414 1.09933 0.399981 1.17024 0.30366 1.26119C0.20734 1.35215 0.130052 1.46133 0.0762854 1.58241C0.0225192 1.70349 -0.00665323 1.83404 -0.0095377 1.96649C-0.0124222 2.09893 0.0110386 2.23063 0.0594826 2.35394C0.107927 2.47724 0.180388 2.58969 0.272657 2.68475L8.12466 10.9998L0.272657 19.3128Z" fill="white"/>
</svg>
