<svg width="395" height="81" viewBox="0 0 395 81" fill="none" xmlns="http://www.w3.org/2000/svg">
<g filter="url(#filter0_dddddd_1040_1380)">
<path d="M364.315 72.618H349.672C346.535 72.618 345.663 71.6593 345.663 70.0034C345.663 66.2557 350.544 68.5217 350.544 63.9025V47.5173C341.654 38.1045 335.03 26.7743 328.93 16.1414C327.796 14.1368 323.7 14.3983 323.7 11.1735C323.7 9.51756 324.572 8.82031 325.966 8.82031H345.315C347.232 8.82031 348.104 9.86618 348.104 11.435C348.104 14.5726 344.095 14.0496 344.095 15.4441C344.095 17.8845 351.241 29.5633 359.608 40.7192C367.278 30.0862 374.163 19.6276 374.163 16.6643C374.163 13.4395 369.195 14.5726 369.195 11.2607C369.195 9.51756 370.067 8.82031 372.333 8.82031H385.406C386.975 8.82031 387.585 9.60471 387.585 11.1735C387.585 13.8753 384.883 12.8295 382.356 17.4487C376.865 27.6459 369.195 37.7559 363.443 45.9485V63.9025C363.443 68.5217 368.324 66.2557 368.324 70.0034C368.324 71.6593 367.452 72.618 364.315 72.618Z" fill="white"/>
</g>
<g filter="url(#filter1_dddddd_1040_1380)">
<path d="M310.481 51.1817H284.857C283.55 54.4064 281.022 63.2091 281.022 65.1265C281.022 67.5669 285.467 66.521 285.467 70.1815C285.467 72.1861 284.334 72.6219 282.591 72.6219H270.738C269.169 72.6219 268.385 71.576 268.385 70.1815C268.385 66.1724 272.394 68.2641 273.701 63.9064C280.587 40.9845 289.999 19.8057 295.49 10.5673C296.885 8.21409 297.93 7.42969 300.894 7.42969C304.206 7.42969 304.816 7.86546 305.426 8.99848C315.884 27.4754 323.118 51.2688 328.173 64.6036C329.306 67.654 332.618 65.9981 332.618 70.0072C332.618 71.9246 331.398 72.6219 329.655 72.6219H313.27C311.527 72.6219 310.742 71.9246 310.742 70.1815C310.742 66.521 314.751 67.3926 314.751 65.3008C314.751 63.5577 313.095 59.5486 310.481 51.1817ZM286.949 44.9065H308.128L297.407 18.7599L286.949 44.9065Z" fill="white"/>
</g>
<g filter="url(#filter2_dddddd_1040_1380)">
<path d="M223.359 63.9025V17.5358C223.359 12.9166 218.479 15.1827 218.479 11.435C218.479 9.77902 219.35 8.82031 222.488 8.82031H237.13C240.267 8.82031 241.139 9.77902 241.139 11.435C241.139 15.1827 236.258 12.9166 236.258 17.5358V62.508C236.258 65.8199 236.955 66.6915 246.543 66.6915C265.019 66.6915 262.753 58.4989 267.286 58.4989C268.506 58.4989 269.203 59.3704 269.203 61.8979C269.203 65.8199 267.111 72.618 262.231 72.618H222.488C219.35 72.618 218.479 71.6593 218.479 70.0034C218.479 66.2557 223.359 68.5217 223.359 63.9025Z" fill="white"/>
</g>
<g filter="url(#filter3_dddddd_1040_1380)">
<path d="M179.574 48.0402V63.9025C179.574 68.5217 185.326 66.2557 185.326 70.0034C185.326 71.6593 184.454 72.618 181.317 72.618H165.803C162.666 72.618 161.794 71.6593 161.794 70.0034C161.794 66.2557 166.675 68.5217 166.675 63.9025V17.5358C166.675 12.9166 161.794 15.1827 161.794 11.435C161.794 9.77902 162.666 8.82031 165.803 8.82031H190.032C207.638 8.82031 216.092 15.9671 216.092 25.5541C216.092 41.2421 198.574 48.0402 179.574 48.0402ZM179.574 20.3248V42.4623C192.124 42.4623 202.147 36.0128 202.147 26.4257C202.147 18.9303 197.353 14.7469 187.853 14.7469C181.84 14.7469 179.574 15.6184 179.574 20.3248Z" fill="white"/>
</g>
<g filter="url(#filter4_dddddd_1040_1380)">
<path d="M87.743 8.82031H104.825C106.743 8.82031 107.789 10.7377 109.183 14.3983C113.89 25.2055 118.073 35.8385 122.082 47.5173L136.637 12.3937C138.032 9.08178 138.206 8.82031 141.692 8.82031H154.94C157.032 8.82031 157.99 9.86618 157.99 11.6964C157.99 15.7927 152.064 12.4808 152.064 18.2331V63.9025C152.064 68.5217 156.944 66.2557 156.944 70.0034C156.944 71.6593 156.073 72.618 152.935 72.618H138.816C135.678 72.618 134.807 71.6593 134.807 70.0034C134.807 66.2557 139.688 68.5217 139.688 63.9025V21.7193H139.513C133.151 38.6274 130.275 44.2054 123.128 60.4163C121.821 63.3796 120.862 64.7741 119.293 64.7741C118.073 64.7741 116.243 62.8566 114.761 59.5447C108.835 46.6457 102.908 33.9211 99.0732 21.7193H98.8989L98.0274 63.3796C98.0274 68.2603 104.477 66.0814 104.477 70.1777C104.477 71.5722 103.431 72.618 100.293 72.618H86.8715C84.6926 72.618 83.9082 71.485 83.9082 69.9162C83.9082 66.3429 89.3118 68.8704 89.8348 62.8566C91.0549 47.8659 91.7522 30.6092 91.7522 17.5358C91.7522 13.1781 84.9541 15.9671 84.9541 11.6093C84.9541 9.86618 86.1742 8.82031 87.743 8.82031Z" fill="white"/>
</g>
<g filter="url(#filter5_dddddd_1040_1380)">
<path d="M76.143 17.5437V63.9103C76.143 68.5295 81.0237 66.2635 81.0237 70.0112C81.0237 71.6671 80.1521 72.6258 77.0145 72.6258H62.3724C59.2348 72.6258 58.3633 71.6671 58.3633 70.0112C58.3633 66.2635 63.244 68.5295 63.244 63.9103V17.5437C63.244 12.9244 58.3633 15.1905 58.3633 11.4428C58.3633 9.78684 59.2348 8.82812 62.3724 8.82812H77.0145C80.1521 8.82812 81.0237 9.78684 81.0237 11.4428C81.0237 15.1905 76.143 12.9244 76.143 17.5437Z" fill="white"/>
</g>
<g filter="url(#filter6_dddddd_1040_1380)">
<path d="M9.44035 26.8714C9.44035 14.321 20.7705 7 32.798 7C45.697 7 53.541 11.7935 54.0639 13.4495C54.5868 15.1926 54.5868 19.5504 54.5868 21.1192C54.5868 22.4265 53.9767 24.0824 52.1465 24.0824C46.5685 24.0824 51.1006 12.9266 32.9723 12.9266C25.9999 12.9266 21.9907 17.6329 21.9907 22.688C21.9907 39.4218 59.4675 26.5228 59.4675 51.7107C59.4675 64.1739 48.6603 73.5867 32.7108 73.5867C18.5045 73.5867 7 65.7427 7 57.9859C7 55.9813 8.39449 53.9767 10.5734 53.9767C17.633 53.9767 14.4954 67.6601 32.2751 67.6601C41.5135 67.6601 47.4401 62.7794 47.4401 55.9813C47.4401 39.8576 9.44035 50.752 9.44035 26.8714Z" fill="white"/>
</g>
<defs>
<filter id="filter0_dddddd_1040_1380" x="317.261" y="2.38072" width="76.7639" height="76.6761" filterUnits="userSpaceOnUse" color-interpolation-filters="sRGB">
<feFlood flood-opacity="0" result="BackgroundImageFix"/>
<feColorMatrix in="SourceAlpha" type="matrix" values="0 0 0 0 0 0 0 0 0 0 0 0 0 0 0 0 0 0 127 0" result="hardAlpha"/>
<feOffset/>
<feGaussianBlur stdDeviation="0.0766618"/>
<feColorMatrix type="matrix" values="0 0 0 0 1 0 0 0 0 1 0 0 0 0 1 0 0 0 1 0"/>
<feBlend mode="normal" in2="BackgroundImageFix" result="effect1_dropShadow_1040_1380"/>
<feColorMatrix in="SourceAlpha" type="matrix" values="0 0 0 0 0 0 0 0 0 0 0 0 0 0 0 0 0 0 127 0" result="hardAlpha"/>
<feOffset/>
<feGaussianBlur stdDeviation="0.153324"/>
<feColorMatrix type="matrix" values="0 0 0 0 1 0 0 0 0 1 0 0 0 0 1 0 0 0 1 0"/>
<feBlend mode="normal" in2="effect1_dropShadow_1040_1380" result="effect2_dropShadow_1040_1380"/>
<feColorMatrix in="SourceAlpha" type="matrix" values="0 0 0 0 0 0 0 0 0 0 0 0 0 0 0 0 0 0 127 0" result="hardAlpha"/>
<feOffset/>
<feGaussianBlur stdDeviation="0.536633"/>
<feColorMatrix type="matrix" values="0 0 0 0 1 0 0 0 0 1 0 0 0 0 1 0 0 0 1 0"/>
<feBlend mode="normal" in2="effect2_dropShadow_1040_1380" result="effect3_dropShadow_1040_1380"/>
<feColorMatrix in="SourceAlpha" type="matrix" values="0 0 0 0 0 0 0 0 0 0 0 0 0 0 0 0 0 0 127 0" result="hardAlpha"/>
<feOffset/>
<feGaussianBlur stdDeviation="1.07327"/>
<feColorMatrix type="matrix" values="0 0 0 0 1 0 0 0 0 1 0 0 0 0 1 0 0 0 1 0"/>
<feBlend mode="normal" in2="effect3_dropShadow_1040_1380" result="effect4_dropShadow_1040_1380"/>
<feColorMatrix in="SourceAlpha" type="matrix" values="0 0 0 0 0 0 0 0 0 0 0 0 0 0 0 0 0 0 127 0" result="hardAlpha"/>
<feOffset/>
<feGaussianBlur stdDeviation="1.83988"/>
<feColorMatrix type="matrix" values="0 0 0 0 1 0 0 0 0 1 0 0 0 0 1 0 0 0 1 0"/>
<feBlend mode="normal" in2="effect4_dropShadow_1040_1380" result="effect5_dropShadow_1040_1380"/>
<feColorMatrix in="SourceAlpha" type="matrix" values="0 0 0 0 0 0 0 0 0 0 0 0 0 0 0 0 0 0 127 0" result="hardAlpha"/>
<feOffset/>
<feGaussianBlur stdDeviation="3.2198"/>
<feColorMatrix type="matrix" values="0 0 0 0 1 0 0 0 0 1 0 0 0 0 1 0 0 0 1 0"/>
<feBlend mode="normal" in2="effect5_dropShadow_1040_1380" result="effect6_dropShadow_1040_1380"/>
<feBlend mode="normal" in="SourceGraphic" in2="effect6_dropShadow_1040_1380" result="shape"/>
</filter>
<filter id="filter1_dddddd_1040_1380" x="261.813" y="0.858314" width="77.3761" height="78.3381" filterUnits="userSpaceOnUse" color-interpolation-filters="sRGB">
<feFlood flood-opacity="0" result="BackgroundImageFix"/>
<feColorMatrix in="SourceAlpha" type="matrix" values="0 0 0 0 0 0 0 0 0 0 0 0 0 0 0 0 0 0 127 0" result="hardAlpha"/>
<feOffset/>
<feGaussianBlur stdDeviation="0.0782306"/>
<feColorMatrix type="matrix" values="0 0 0 0 1 0 0 0 0 1 0 0 0 0 1 0 0 0 1 0"/>
<feBlend mode="normal" in2="BackgroundImageFix" result="effect1_dropShadow_1040_1380"/>
<feColorMatrix in="SourceAlpha" type="matrix" values="0 0 0 0 0 0 0 0 0 0 0 0 0 0 0 0 0 0 127 0" result="hardAlpha"/>
<feOffset/>
<feGaussianBlur stdDeviation="0.156461"/>
<feColorMatrix type="matrix" values="0 0 0 0 1 0 0 0 0 1 0 0 0 0 1 0 0 0 1 0"/>
<feBlend mode="normal" in2="effect1_dropShadow_1040_1380" result="effect2_dropShadow_1040_1380"/>
<feColorMatrix in="SourceAlpha" type="matrix" values="0 0 0 0 0 0 0 0 0 0 0 0 0 0 0 0 0 0 127 0" result="hardAlpha"/>
<feOffset/>
<feGaussianBlur stdDeviation="0.547614"/>
<feColorMatrix type="matrix" values="0 0 0 0 1 0 0 0 0 1 0 0 0 0 1 0 0 0 1 0"/>
<feBlend mode="normal" in2="effect2_dropShadow_1040_1380" result="effect3_dropShadow_1040_1380"/>
<feColorMatrix in="SourceAlpha" type="matrix" values="0 0 0 0 0 0 0 0 0 0 0 0 0 0 0 0 0 0 127 0" result="hardAlpha"/>
<feOffset/>
<feGaussianBlur stdDeviation="1.09523"/>
<feColorMatrix type="matrix" values="0 0 0 0 1 0 0 0 0 1 0 0 0 0 1 0 0 0 1 0"/>
<feBlend mode="normal" in2="effect3_dropShadow_1040_1380" result="effect4_dropShadow_1040_1380"/>
<feColorMatrix in="SourceAlpha" type="matrix" values="0 0 0 0 0 0 0 0 0 0 0 0 0 0 0 0 0 0 127 0" result="hardAlpha"/>
<feOffset/>
<feGaussianBlur stdDeviation="1.87754"/>
<feColorMatrix type="matrix" values="0 0 0 0 1 0 0 0 0 1 0 0 0 0 1 0 0 0 1 0"/>
<feBlend mode="normal" in2="effect4_dropShadow_1040_1380" result="effect5_dropShadow_1040_1380"/>
<feColorMatrix in="SourceAlpha" type="matrix" values="0 0 0 0 0 0 0 0 0 0 0 0 0 0 0 0 0 0 127 0" result="hardAlpha"/>
<feOffset/>
<feGaussianBlur stdDeviation="3.28569"/>
<feColorMatrix type="matrix" values="0 0 0 0 1 0 0 0 0 1 0 0 0 0 1 0 0 0 1 0"/>
<feBlend mode="normal" in2="effect5_dropShadow_1040_1380" result="effect6_dropShadow_1040_1380"/>
<feBlend mode="normal" in="SourceGraphic" in2="effect6_dropShadow_1040_1380" result="shape"/>
</filter>
<filter id="filter2_dddddd_1040_1380" x="212.048" y="2.3895" width="63.5862" height="76.6585" filterUnits="userSpaceOnUse" color-interpolation-filters="sRGB">
<feFlood flood-opacity="0" result="BackgroundImageFix"/>
<feColorMatrix in="SourceAlpha" type="matrix" values="0 0 0 0 0 0 0 0 0 0 0 0 0 0 0 0 0 0 127 0" result="hardAlpha"/>
<feOffset/>
<feGaussianBlur stdDeviation="0.0765573"/>
<feColorMatrix type="matrix" values="0 0 0 0 1 0 0 0 0 1 0 0 0 0 1 0 0 0 1 0"/>
<feBlend mode="normal" in2="BackgroundImageFix" result="effect1_dropShadow_1040_1380"/>
<feColorMatrix in="SourceAlpha" type="matrix" values="0 0 0 0 0 0 0 0 0 0 0 0 0 0 0 0 0 0 127 0" result="hardAlpha"/>
<feOffset/>
<feGaussianBlur stdDeviation="0.153115"/>
<feColorMatrix type="matrix" values="0 0 0 0 1 0 0 0 0 1 0 0 0 0 1 0 0 0 1 0"/>
<feBlend mode="normal" in2="effect1_dropShadow_1040_1380" result="effect2_dropShadow_1040_1380"/>
<feColorMatrix in="SourceAlpha" type="matrix" values="0 0 0 0 0 0 0 0 0 0 0 0 0 0 0 0 0 0 127 0" result="hardAlpha"/>
<feOffset/>
<feGaussianBlur stdDeviation="0.535901"/>
<feColorMatrix type="matrix" values="0 0 0 0 1 0 0 0 0 1 0 0 0 0 1 0 0 0 1 0"/>
<feBlend mode="normal" in2="effect2_dropShadow_1040_1380" result="effect3_dropShadow_1040_1380"/>
<feColorMatrix in="SourceAlpha" type="matrix" values="0 0 0 0 0 0 0 0 0 0 0 0 0 0 0 0 0 0 127 0" result="hardAlpha"/>
<feOffset/>
<feGaussianBlur stdDeviation="1.0718"/>
<feColorMatrix type="matrix" values="0 0 0 0 1 0 0 0 0 1 0 0 0 0 1 0 0 0 1 0"/>
<feBlend mode="normal" in2="effect3_dropShadow_1040_1380" result="effect4_dropShadow_1040_1380"/>
<feColorMatrix in="SourceAlpha" type="matrix" values="0 0 0 0 0 0 0 0 0 0 0 0 0 0 0 0 0 0 127 0" result="hardAlpha"/>
<feOffset/>
<feGaussianBlur stdDeviation="1.83737"/>
<feColorMatrix type="matrix" values="0 0 0 0 1 0 0 0 0 1 0 0 0 0 1 0 0 0 1 0"/>
<feBlend mode="normal" in2="effect4_dropShadow_1040_1380" result="effect5_dropShadow_1040_1380"/>
<feColorMatrix in="SourceAlpha" type="matrix" values="0 0 0 0 0 0 0 0 0 0 0 0 0 0 0 0 0 0 127 0" result="hardAlpha"/>
<feOffset/>
<feGaussianBlur stdDeviation="3.21541"/>
<feColorMatrix type="matrix" values="0 0 0 0 1 0 0 0 0 1 0 0 0 0 1 0 0 0 1 0"/>
<feBlend mode="normal" in2="effect5_dropShadow_1040_1380" result="effect6_dropShadow_1040_1380"/>
<feBlend mode="normal" in="SourceGraphic" in2="effect6_dropShadow_1040_1380" result="shape"/>
</filter>
<filter id="filter3_dddddd_1040_1380" x="155.363" y="2.3895" width="67.1595" height="76.6585" filterUnits="userSpaceOnUse" color-interpolation-filters="sRGB">
<feFlood flood-opacity="0" result="BackgroundImageFix"/>
<feColorMatrix in="SourceAlpha" type="matrix" values="0 0 0 0 0 0 0 0 0 0 0 0 0 0 0 0 0 0 127 0" result="hardAlpha"/>
<feOffset/>
<feGaussianBlur stdDeviation="0.0765573"/>
<feColorMatrix type="matrix" values="0 0 0 0 1 0 0 0 0 1 0 0 0 0 1 0 0 0 1 0"/>
<feBlend mode="normal" in2="BackgroundImageFix" result="effect1_dropShadow_1040_1380"/>
<feColorMatrix in="SourceAlpha" type="matrix" values="0 0 0 0 0 0 0 0 0 0 0 0 0 0 0 0 0 0 127 0" result="hardAlpha"/>
<feOffset/>
<feGaussianBlur stdDeviation="0.153115"/>
<feColorMatrix type="matrix" values="0 0 0 0 1 0 0 0 0 1 0 0 0 0 1 0 0 0 1 0"/>
<feBlend mode="normal" in2="effect1_dropShadow_1040_1380" result="effect2_dropShadow_1040_1380"/>
<feColorMatrix in="SourceAlpha" type="matrix" values="0 0 0 0 0 0 0 0 0 0 0 0 0 0 0 0 0 0 127 0" result="hardAlpha"/>
<feOffset/>
<feGaussianBlur stdDeviation="0.535901"/>
<feColorMatrix type="matrix" values="0 0 0 0 1 0 0 0 0 1 0 0 0 0 1 0 0 0 1 0"/>
<feBlend mode="normal" in2="effect2_dropShadow_1040_1380" result="effect3_dropShadow_1040_1380"/>
<feColorMatrix in="SourceAlpha" type="matrix" values="0 0 0 0 0 0 0 0 0 0 0 0 0 0 0 0 0 0 127 0" result="hardAlpha"/>
<feOffset/>
<feGaussianBlur stdDeviation="1.0718"/>
<feColorMatrix type="matrix" values="0 0 0 0 1 0 0 0 0 1 0 0 0 0 1 0 0 0 1 0"/>
<feBlend mode="normal" in2="effect3_dropShadow_1040_1380" result="effect4_dropShadow_1040_1380"/>
<feColorMatrix in="SourceAlpha" type="matrix" values="0 0 0 0 0 0 0 0 0 0 0 0 0 0 0 0 0 0 127 0" result="hardAlpha"/>
<feOffset/>
<feGaussianBlur stdDeviation="1.83737"/>
<feColorMatrix type="matrix" values="0 0 0 0 1 0 0 0 0 1 0 0 0 0 1 0 0 0 1 0"/>
<feBlend mode="normal" in2="effect4_dropShadow_1040_1380" result="effect5_dropShadow_1040_1380"/>
<feColorMatrix in="SourceAlpha" type="matrix" values="0 0 0 0 0 0 0 0 0 0 0 0 0 0 0 0 0 0 127 0" result="hardAlpha"/>
<feOffset/>
<feGaussianBlur stdDeviation="3.21541"/>
<feColorMatrix type="matrix" values="0 0 0 0 1 0 0 0 0 1 0 0 0 0 1 0 0 0 1 0"/>
<feBlend mode="normal" in2="effect5_dropShadow_1040_1380" result="effect6_dropShadow_1040_1380"/>
<feBlend mode="normal" in="SourceGraphic" in2="effect6_dropShadow_1040_1380" result="shape"/>
</filter>
<filter id="filter4_dddddd_1040_1380" x="76.4407" y="1.35284" width="89.017" height="78.7318" filterUnits="userSpaceOnUse" color-interpolation-filters="sRGB">
<feFlood flood-opacity="0" result="BackgroundImageFix"/>
<feColorMatrix in="SourceAlpha" type="matrix" values="0 0 0 0 0 0 0 0 0 0 0 0 0 0 0 0 0 0 127 0" result="hardAlpha"/>
<feOffset/>
<feGaussianBlur stdDeviation="0.0888985"/>
<feColorMatrix type="matrix" values="0 0 0 0 1 0 0 0 0 1 0 0 0 0 1 0 0 0 1 0"/>
<feBlend mode="normal" in2="BackgroundImageFix" result="effect1_dropShadow_1040_1380"/>
<feColorMatrix in="SourceAlpha" type="matrix" values="0 0 0 0 0 0 0 0 0 0 0 0 0 0 0 0 0 0 127 0" result="hardAlpha"/>
<feOffset/>
<feGaussianBlur stdDeviation="0.177797"/>
<feColorMatrix type="matrix" values="0 0 0 0 1 0 0 0 0 1 0 0 0 0 1 0 0 0 1 0"/>
<feBlend mode="normal" in2="effect1_dropShadow_1040_1380" result="effect2_dropShadow_1040_1380"/>
<feColorMatrix in="SourceAlpha" type="matrix" values="0 0 0 0 0 0 0 0 0 0 0 0 0 0 0 0 0 0 127 0" result="hardAlpha"/>
<feOffset/>
<feGaussianBlur stdDeviation="0.622289"/>
<feColorMatrix type="matrix" values="0 0 0 0 1 0 0 0 0 1 0 0 0 0 1 0 0 0 1 0"/>
<feBlend mode="normal" in2="effect2_dropShadow_1040_1380" result="effect3_dropShadow_1040_1380"/>
<feColorMatrix in="SourceAlpha" type="matrix" values="0 0 0 0 0 0 0 0 0 0 0 0 0 0 0 0 0 0 127 0" result="hardAlpha"/>
<feOffset/>
<feGaussianBlur stdDeviation="1.24458"/>
<feColorMatrix type="matrix" values="0 0 0 0 1 0 0 0 0 1 0 0 0 0 1 0 0 0 1 0"/>
<feBlend mode="normal" in2="effect3_dropShadow_1040_1380" result="effect4_dropShadow_1040_1380"/>
<feColorMatrix in="SourceAlpha" type="matrix" values="0 0 0 0 0 0 0 0 0 0 0 0 0 0 0 0 0 0 127 0" result="hardAlpha"/>
<feOffset/>
<feGaussianBlur stdDeviation="2.13356"/>
<feColorMatrix type="matrix" values="0 0 0 0 1 0 0 0 0 1 0 0 0 0 1 0 0 0 1 0"/>
<feBlend mode="normal" in2="effect4_dropShadow_1040_1380" result="effect5_dropShadow_1040_1380"/>
<feColorMatrix in="SourceAlpha" type="matrix" values="0 0 0 0 0 0 0 0 0 0 0 0 0 0 0 0 0 0 127 0" result="hardAlpha"/>
<feOffset/>
<feGaussianBlur stdDeviation="3.73374"/>
<feColorMatrix type="matrix" values="0 0 0 0 1 0 0 0 0 1 0 0 0 0 1 0 0 0 1 0"/>
<feBlend mode="normal" in2="effect5_dropShadow_1040_1380" result="effect6_dropShadow_1040_1380"/>
<feBlend mode="normal" in="SourceGraphic" in2="effect6_dropShadow_1040_1380" result="shape"/>
</filter>
<filter id="filter5_dddddd_1040_1380" x="51.9325" y="2.39731" width="35.5218" height="76.6585" filterUnits="userSpaceOnUse" color-interpolation-filters="sRGB">
<feFlood flood-opacity="0" result="BackgroundImageFix"/>
<feColorMatrix in="SourceAlpha" type="matrix" values="0 0 0 0 0 0 0 0 0 0 0 0 0 0 0 0 0 0 127 0" result="hardAlpha"/>
<feOffset/>
<feGaussianBlur stdDeviation="0.0765573"/>
<feColorMatrix type="matrix" values="0 0 0 0 1 0 0 0 0 1 0 0 0 0 1 0 0 0 1 0"/>
<feBlend mode="normal" in2="BackgroundImageFix" result="effect1_dropShadow_1040_1380"/>
<feColorMatrix in="SourceAlpha" type="matrix" values="0 0 0 0 0 0 0 0 0 0 0 0 0 0 0 0 0 0 127 0" result="hardAlpha"/>
<feOffset/>
<feGaussianBlur stdDeviation="0.153115"/>
<feColorMatrix type="matrix" values="0 0 0 0 1 0 0 0 0 1 0 0 0 0 1 0 0 0 1 0"/>
<feBlend mode="normal" in2="effect1_dropShadow_1040_1380" result="effect2_dropShadow_1040_1380"/>
<feColorMatrix in="SourceAlpha" type="matrix" values="0 0 0 0 0 0 0 0 0 0 0 0 0 0 0 0 0 0 127 0" result="hardAlpha"/>
<feOffset/>
<feGaussianBlur stdDeviation="0.535901"/>
<feColorMatrix type="matrix" values="0 0 0 0 1 0 0 0 0 1 0 0 0 0 1 0 0 0 1 0"/>
<feBlend mode="normal" in2="effect2_dropShadow_1040_1380" result="effect3_dropShadow_1040_1380"/>
<feColorMatrix in="SourceAlpha" type="matrix" values="0 0 0 0 0 0 0 0 0 0 0 0 0 0 0 0 0 0 127 0" result="hardAlpha"/>
<feOffset/>
<feGaussianBlur stdDeviation="1.0718"/>
<feColorMatrix type="matrix" values="0 0 0 0 1 0 0 0 0 1 0 0 0 0 1 0 0 0 1 0"/>
<feBlend mode="normal" in2="effect3_dropShadow_1040_1380" result="effect4_dropShadow_1040_1380"/>
<feColorMatrix in="SourceAlpha" type="matrix" values="0 0 0 0 0 0 0 0 0 0 0 0 0 0 0 0 0 0 127 0" result="hardAlpha"/>
<feOffset/>
<feGaussianBlur stdDeviation="1.83737"/>
<feColorMatrix type="matrix" values="0 0 0 0 1 0 0 0 0 1 0 0 0 0 1 0 0 0 1 0"/>
<feBlend mode="normal" in2="effect4_dropShadow_1040_1380" result="effect5_dropShadow_1040_1380"/>
<feColorMatrix in="SourceAlpha" type="matrix" values="0 0 0 0 0 0 0 0 0 0 0 0 0 0 0 0 0 0 127 0" result="hardAlpha"/>
<feOffset/>
<feGaussianBlur stdDeviation="3.21541"/>
<feColorMatrix type="matrix" values="0 0 0 0 1 0 0 0 0 1 0 0 0 0 1 0 0 0 1 0"/>
<feBlend mode="normal" in2="effect5_dropShadow_1040_1380" result="effect6_dropShadow_1040_1380"/>
<feBlend mode="normal" in="SourceGraphic" in2="effect6_dropShadow_1040_1380" result="shape"/>
</filter>
<filter id="filter6_dddddd_1040_1380" x="0.288062" y="0.288062" width="65.8916" height="80.0098" filterUnits="userSpaceOnUse" color-interpolation-filters="sRGB">
<feFlood flood-opacity="0" result="BackgroundImageFix"/>
<feColorMatrix in="SourceAlpha" type="matrix" values="0 0 0 0 0 0 0 0 0 0 0 0 0 0 0 0 0 0 127 0" result="hardAlpha"/>
<feOffset/>
<feGaussianBlur stdDeviation="0.079904"/>
<feColorMatrix type="matrix" values="0 0 0 0 1 0 0 0 0 1 0 0 0 0 1 0 0 0 1 0"/>
<feBlend mode="normal" in2="BackgroundImageFix" result="effect1_dropShadow_1040_1380"/>
<feColorMatrix in="SourceAlpha" type="matrix" values="0 0 0 0 0 0 0 0 0 0 0 0 0 0 0 0 0 0 127 0" result="hardAlpha"/>
<feOffset/>
<feGaussianBlur stdDeviation="0.159808"/>
<feColorMatrix type="matrix" values="0 0 0 0 1 0 0 0 0 1 0 0 0 0 1 0 0 0 1 0"/>
<feBlend mode="normal" in2="effect1_dropShadow_1040_1380" result="effect2_dropShadow_1040_1380"/>
<feColorMatrix in="SourceAlpha" type="matrix" values="0 0 0 0 0 0 0 0 0 0 0 0 0 0 0 0 0 0 127 0" result="hardAlpha"/>
<feOffset/>
<feGaussianBlur stdDeviation="0.559328"/>
<feColorMatrix type="matrix" values="0 0 0 0 1 0 0 0 0 1 0 0 0 0 1 0 0 0 1 0"/>
<feBlend mode="normal" in2="effect2_dropShadow_1040_1380" result="effect3_dropShadow_1040_1380"/>
<feColorMatrix in="SourceAlpha" type="matrix" values="0 0 0 0 0 0 0 0 0 0 0 0 0 0 0 0 0 0 127 0" result="hardAlpha"/>
<feOffset/>
<feGaussianBlur stdDeviation="1.11866"/>
<feColorMatrix type="matrix" values="0 0 0 0 1 0 0 0 0 1 0 0 0 0 1 0 0 0 1 0"/>
<feBlend mode="normal" in2="effect3_dropShadow_1040_1380" result="effect4_dropShadow_1040_1380"/>
<feColorMatrix in="SourceAlpha" type="matrix" values="0 0 0 0 0 0 0 0 0 0 0 0 0 0 0 0 0 0 127 0" result="hardAlpha"/>
<feOffset/>
<feGaussianBlur stdDeviation="1.9177"/>
<feColorMatrix type="matrix" values="0 0 0 0 1 0 0 0 0 1 0 0 0 0 1 0 0 0 1 0"/>
<feBlend mode="normal" in2="effect4_dropShadow_1040_1380" result="effect5_dropShadow_1040_1380"/>
<feColorMatrix in="SourceAlpha" type="matrix" values="0 0 0 0 0 0 0 0 0 0 0 0 0 0 0 0 0 0 127 0" result="hardAlpha"/>
<feOffset/>
<feGaussianBlur stdDeviation="3.35597"/>
<feColorMatrix type="matrix" values="0 0 0 0 1 0 0 0 0 1 0 0 0 0 1 0 0 0 1 0"/>
<feBlend mode="normal" in2="effect5_dropShadow_1040_1380" result="effect6_dropShadow_1040_1380"/>
<feBlend mode="normal" in="SourceGraphic" in2="effect6_dropShadow_1040_1380" result="shape"/>
</filter>
</defs>
</svg>
