<svg width="119" height="105" viewBox="0 0 119 105" fill="none" xmlns="http://www.w3.org/2000/svg">
<path d="M90 21H6C4.4087 21 2.88258 21.6321 1.75736 22.7574C0.632141 23.8826 0 25.4087 0 27V99C0 100.591 0.632141 102.117 1.75736 103.243C2.88258 104.368 4.4087 105 6 105H90C91.5913 105 93.1174 104.368 94.2426 103.243C95.3679 102.117 96 100.591 96 99V27C96 25.4087 95.3679 23.8826 94.2426 22.7574C93.1174 21.6321 91.5913 21 90 21ZM6 99V27H90V99H6Z" fill="black"/>
<path d="M21 51C22.78 51 24.5201 50.4722 26.0001 49.4832C27.4802 48.4943 28.6337 47.0887 29.3149 45.4442C29.9961 43.7996 30.1743 41.99 29.8271 40.2442C29.4798 38.4984 28.6226 36.8947 27.364 35.636C26.1053 34.3774 24.5016 33.5202 22.7558 33.1729C21.01 32.8257 19.2004 33.0039 17.5558 33.6851C15.9113 34.3663 14.5057 35.5198 13.5168 36.9999C12.5278 38.4799 12 40.22 12 42C12 44.387 12.9482 46.6761 14.636 48.364C16.3239 50.0518 18.613 51 21 51ZM21 37.2C21.9506 37.1941 22.8816 37.4705 23.6749 37.9943C24.4682 38.5181 25.088 39.2657 25.456 40.1422C25.8239 41.0188 25.9232 41.9848 25.7414 42.9179C25.5596 43.851 25.1048 44.7091 24.4347 45.3834C23.7647 46.0577 22.9094 46.5178 21.9775 46.7055C21.0456 46.8931 20.0789 46.7998 19.2001 46.4374C18.3213 46.075 17.5698 45.4598 17.0411 44.6698C16.5123 43.8798 16.23 42.9506 16.23 42C16.2379 40.7373 16.7429 39.5286 17.6358 38.6358C18.5286 37.7429 19.7373 37.2379 21 37.23V37.2Z" fill="black"/>
<path d="M62.412 54.8844L46.2658 71.3071L34.3056 59.1421C33.7454 58.5757 32.9876 58.2578 32.1977 58.2578C31.4078 58.2578 30.6499 58.5757 30.0897 59.1421L12 77.785V86.3917L32.3023 65.7416L42.1395 75.5953L30.9269 87H39.1495L64.4153 61.3014L84 81.1304V72.5541L66.6279 54.8844C66.0677 54.3179 65.3099 54 64.5199 54C63.73 54 62.9722 54.3179 62.412 54.8844Z" fill="black"/>
<circle cx="91" cy="28" r="28" fill="black"/>
<path d="M103.857 30.1429H93.1429V40.8571C93.1429 41.4255 92.9171 41.9705 92.5152 42.3724C92.1134 42.7742 91.5683 43 91 43C90.4317 43 89.8866 42.7742 89.4848 42.3724C89.0829 41.9705 88.8571 41.4255 88.8571 40.8571V30.1429H78.1429C77.5745 30.1429 77.0295 29.9171 76.6276 29.5152C76.2258 29.1134 76 28.5683 76 28C76 27.4317 76.2258 26.8866 76.6276 26.4848C77.0295 26.0829 77.5745 25.8571 78.1429 25.8571H88.8571V15.1429C88.8571 14.5745 89.0829 14.0295 89.4848 13.6276C89.8866 13.2258 90.4317 13 91 13C91.5683 13 92.1134 13.2258 92.5152 13.6276C92.9171 14.0295 93.1429 14.5745 93.1429 15.1429V25.8571H103.857C104.425 25.8571 104.971 26.0829 105.372 26.4848C105.774 26.8866 106 27.4317 106 28C106 28.5683 105.774 29.1134 105.372 29.5152C104.971 29.9171 104.425 30.1429 103.857 30.1429Z" fill="#F5F5F5"/>
</svg>
